<svg data-v-fde0c5aa="" xmlns="http://www.w3.org/2000/svg" viewBox="0 0 300 300" class="iconLeft"><!----><defs data-v-fde0c5aa=""><!----></defs><rect data-v-fde0c5aa="" fill="transparent" x="0" y="0" width="300px" height="300px" class="logo-background-square"></rect><defs data-v-fde0c5aa=""><!----></defs><g data-v-fde0c5aa="" id="d5ba1a7e-1414-4ad3-a242-e12e45066435" fill="#000000" transform="matrix(2.4019493997097148,0,0,2.4019493997097148,101.51937784550277,127.51775329802223)"><path d="M5.29 2.86L5.29 2.86Q6.01 2.86 6.54 2.98Q7.07 3.10 7.42 3.31Q7.77 3.52 7.95 3.81Q8.12 4.09 8.12 4.43L8.12 4.43Q8.12 4.66 8.03 4.84Q7.94 5.02 7.77 5.14Q7.61 5.27 7.39 5.34Q7.16 5.41 6.90 5.41L6.90 5.41Q6.90 5.08 6.82 4.76Q6.73 4.44 6.54 4.18Q6.34 3.92 6.03 3.76Q5.72 3.60 5.26 3.60L5.26 3.60Q4.47 3.60 3.92 3.89Q3.36 4.18 3.01 4.74Q2.67 5.30 2.51 6.11Q2.35 6.93 2.35 7.98L2.35 7.98Q2.35 8.92 2.52 9.70Q2.68 10.48 3.04 11.04Q3.39 11.59 3.94 11.90Q4.49 12.21 5.26 12.21L5.26 12.21Q5.78 12.21 6.17 12.11Q6.56 12.01 6.86 11.85Q7.16 11.68 7.39 11.47Q7.62 11.25 7.80 11.02L7.80 11.02Q7.92 11.09 7.99 11.22Q8.07 11.35 8.07 11.57L8.07 11.57Q8.07 11.83 7.89 12.11Q7.70 12.39 7.33 12.61Q6.97 12.84 6.40 12.98Q5.83 13.13 5.05 13.13L5.05 13.13Q4.01 13.13 3.21 12.76Q2.42 12.39 1.88 11.72Q1.35 11.04 1.07 10.09Q0.80 9.14 0.80 7.98L0.80 7.98Q0.80 6.85 1.09 5.91Q1.37 4.96 1.94 4.29Q2.50 3.61 3.34 3.23Q4.18 2.86 5.29 2.86ZM15.90 9.23L15.90 9.23Q15.90 11.20 15.06 12.17Q14.23 13.13 12.61 13.13L12.61 13.13Q11.85 13.13 11.25 12.89Q10.65 12.65 10.23 12.17Q9.81 11.68 9.59 10.95Q9.37 10.21 9.37 9.23L9.37 9.23Q9.37 7.27 10.20 6.31Q11.03 5.35 12.65 5.35L12.65 5.35Q13.41 5.35 14.01 5.59Q14.62 5.82 15.04 6.31Q15.46 6.79 15.68 7.52Q15.90 8.24 15.90 9.23ZM10.72 9.23L10.72 9.23Q10.72 10.01 10.82 10.60Q10.92 11.20 11.15 11.60Q11.38 12.00 11.75 12.20Q12.11 12.41 12.64 12.41L12.64 12.41Q13.17 12.41 13.53 12.20Q13.89 12.00 14.12 11.60Q14.34 11.20 14.44 10.60Q14.54 10.01 14.54 9.23L14.54 9.23Q14.54 8.45 14.44 7.86Q14.33 7.27 14.11 6.88Q13.88 6.49 13.52 6.29Q13.15 6.09 12.63 6.09L12.63 6.09Q12.10 6.09 11.74 6.29Q11.38 6.49 11.15 6.88Q10.92 7.27 10.82 7.86Q10.72 8.45 10.72 9.23ZM24.04 5.78L24.04 5.78Q24.04 5.93 23.99 6.07Q23.95 6.20 23.86 6.30Q23.77 6.40 23.63 6.46Q23.49 6.51 23.30 6.51L23.30 6.51Q23.30 6.43 23.28 6.35Q23.26 6.27 23.20 6.20Q23.15 6.13 23.06 6.08Q22.98 6.04 22.83 6.04L22.83 6.04Q22.65 6.04 22.51 6.08Q22.37 6.12 22.23 6.21L22.23 6.21Q22.47 6.50 22.62 6.90Q22.78 7.30 22.78 7.90L22.78 7.90Q22.78 8.42 22.62 8.86Q22.46 9.30 22.15 9.63Q21.84 9.95 21.37 10.13Q20.89 10.31 20.25 10.31L20.25 10.31Q20.17 10.31 20.07 10.31Q19.97 10.30 19.87 10.30Q19.76 10.29 19.67 10.28Q19.58 10.27 19.53 10.27L19.53 10.27Q19.39 10.34 19.27 10.42Q19.15 10.50 19.06 10.60Q18.96 10.71 18.91 10.83Q18.85 10.96 18.85 11.12L18.85 11.12Q18.85 11.29 18.92 11.40Q18.98 11.50 19.10 11.56Q19.22 11.61 19.38 11.63Q19.54 11.65 19.72 11.65L19.72 11.65L21.31 11.65Q21.94 11.65 22.37 11.81Q22.81 11.96 23.09 12.24Q23.37 12.52 23.49 12.90Q23.62 13.29 23.62 13.74L23.62 13.74Q23.62 14.34 23.40 14.83Q23.17 15.31 22.72 15.65Q22.26 15.99 21.56 16.17Q20.86 16.36 19.91 16.36L19.91 16.36Q18.44 16.36 17.72 15.82Q16.99 15.28 16.99 14.31L16.99 14.31Q16.99 13.90 17.14 13.60Q17.28 13.29 17.52 13.07Q17.77 12.85 18.08 12.71Q18.40 12.58 18.74 12.52L18.74 12.52Q18.60 12.46 18.46 12.35Q18.33 12.25 18.22 12.11Q18.11 11.96 18.04 11.78Q17.97 11.59 17.97 11.37L17.97 11.37Q17.97 10.95 18.19 10.65Q18.41 10.34 18.89 10.06L18.89 10.06Q18.59 9.93 18.35 9.72Q18.12 9.50 17.95 9.23Q17.79 8.95 17.71 8.62Q17.62 8.29 17.62 7.94L17.62 7.94Q17.62 7.33 17.79 6.86Q17.95 6.38 18.28 6.04Q18.61 5.71 19.10 5.53Q19.59 5.35 20.25 5.35L20.25 5.35Q20.51 5.35 20.75 5.39Q21 5.43 21.21 5.49Q21.42 5.56 21.58 5.64Q21.75 5.72 21.85 5.81L21.85 5.81Q21.96 5.70 22.09 5.57Q22.23 5.43 22.40 5.32Q22.57 5.21 22.77 5.13Q22.98 5.06 23.21 5.06L23.21 5.06Q23.42 5.06 23.57 5.12Q23.73 5.17 23.83 5.27Q23.93 5.37 23.98 5.51Q24.04 5.64 24.04 5.78ZM18.13 14.23L18.13 14.23Q18.13 14.53 18.21 14.80Q18.29 15.07 18.50 15.26Q18.70 15.45 19.05 15.56Q19.40 15.67 19.93 15.67L19.93 15.67Q20.69 15.67 21.17 15.54Q21.66 15.42 21.95 15.19Q22.24 14.96 22.35 14.65Q22.47 14.34 22.47 13.97L22.47 13.97Q22.47 13.65 22.38 13.44Q22.29 13.23 22.10 13.11Q21.92 13.00 21.66 12.95Q21.39 12.90 21.04 12.90L21.04 12.90L19.67 12.90Q19.37 12.90 19.10 12.95Q18.82 13.00 18.60 13.15Q18.39 13.29 18.26 13.55Q18.13 13.81 18.13 14.23ZM18.94 7.90L18.94 7.90Q18.94 8.80 19.24 9.21Q19.54 9.63 20.21 9.63L20.21 9.63Q20.56 9.63 20.79 9.53Q21.03 9.43 21.18 9.21Q21.33 9.00 21.39 8.67Q21.46 8.34 21.46 7.88L21.46 7.88Q21.46 6.94 21.17 6.49Q20.88 6.04 20.20 6.04L20.20 6.04Q19.52 6.04 19.23 6.50Q18.94 6.96 18.94 7.90ZM28.32 12.41L28.36 12.41L28.36 13.00L24.60 13.00L24.60 12.41L24.71 12.41Q24.95 12.41 25.16 12.37Q25.37 12.34 25.52 12.23Q25.68 12.13 25.77 11.93Q25.86 11.73 25.86 11.40L25.86 11.40L25.86 7.03Q25.86 6.73 25.77 6.54Q25.68 6.35 25.52 6.25Q25.36 6.15 25.15 6.11Q24.94 6.08 24.71 6.08L24.71 6.08L24.67 6.08L24.67 5.49L26.93 5.49L27.12 6.62L27.19 6.62Q27.41 6.23 27.65 5.98Q27.89 5.74 28.16 5.60Q28.43 5.46 28.73 5.40Q29.04 5.35 29.37 5.35L29.37 5.35Q29.93 5.35 30.36 5.51Q30.80 5.67 31.10 6.01Q31.40 6.34 31.56 6.86Q31.73 7.38 31.73 8.09L31.73 8.09L31.73 11.40Q31.73 11.73 31.80 11.93Q31.88 12.13 32.03 12.23Q32.17 12.34 32.37 12.37Q32.57 12.41 32.80 12.41L32.80 12.41L32.85 12.41L32.85 13.00L30.41 13.00L30.41 8.16Q30.41 7.70 30.32 7.35Q30.24 6.99 30.06 6.75Q29.88 6.50 29.59 6.37Q29.29 6.25 28.87 6.25L28.87 6.25Q28.39 6.25 28.06 6.43Q27.74 6.62 27.54 6.93Q27.34 7.25 27.26 7.66Q27.17 8.07 27.17 8.52L27.17 8.52L27.17 11.47Q27.17 11.78 27.27 11.97Q27.36 12.15 27.51 12.25Q27.67 12.35 27.88 12.38Q28.09 12.41 28.32 12.41L28.32 12.41ZM33.56 12.41L33.74 12.41Q33.97 12.41 34.18 12.38Q34.39 12.35 34.55 12.25Q34.71 12.15 34.80 11.97Q34.89 11.78 34.89 11.47L34.89 11.47L34.89 7.03Q34.89 6.73 34.80 6.54Q34.71 6.35 34.55 6.25Q34.39 6.15 34.18 6.11Q33.97 6.08 33.74 6.08L33.74 6.08L33.70 6.08L33.70 5.49L36.20 5.49L36.20 11.40Q36.20 11.73 36.30 11.93Q36.39 12.13 36.54 12.23Q36.70 12.34 36.91 12.37Q37.12 12.41 37.35 12.41L37.35 12.41L37.54 12.41L37.54 13.00L33.56 13.00L33.56 12.41ZM34.69 3.22L34.69 3.22Q34.69 2.97 34.75 2.81Q34.82 2.65 34.92 2.54Q35.03 2.44 35.18 2.40Q35.32 2.36 35.49 2.36L35.49 2.36Q35.66 2.36 35.80 2.40Q35.94 2.44 36.05 2.54Q36.16 2.65 36.22 2.81Q36.29 2.97 36.29 3.22L36.29 3.22Q36.29 3.47 36.22 3.63Q36.16 3.79 36.05 3.90Q35.94 4.00 35.80 4.04Q35.66 4.09 35.49 4.09L35.49 4.09Q35.32 4.09 35.18 4.04Q35.03 4.00 34.92 3.90Q34.82 3.79 34.75 3.63Q34.69 3.47 34.69 3.22ZM41.68 13.13L41.68 13.13Q40.98 13.13 40.39 12.92Q39.81 12.70 39.38 12.24Q38.96 11.77 38.72 11.04Q38.49 10.32 38.49 9.28L38.49 9.28Q38.49 8.16 38.72 7.41Q38.96 6.65 39.38 6.19Q39.80 5.74 40.37 5.54Q40.94 5.35 41.60 5.35L41.60 5.35Q42.04 5.35 42.48 5.44Q42.91 5.52 43.26 5.70Q43.61 5.88 43.83 6.15Q44.04 6.42 44.04 6.78L44.04 6.78Q44.04 7.27 43.73 7.46Q43.42 7.66 42.79 7.66L42.79 7.66Q42.79 7.33 42.74 7.04Q42.68 6.75 42.55 6.52Q42.42 6.30 42.19 6.18Q41.96 6.05 41.60 6.05L41.60 6.05Q41.20 6.05 40.88 6.20Q40.55 6.35 40.32 6.72Q40.09 7.09 39.96 7.71Q39.84 8.33 39.84 9.27L39.84 9.27Q39.84 10.76 40.34 11.49Q40.83 12.22 41.96 12.22L41.96 12.22Q42.61 12.22 43.09 11.95Q43.58 11.68 43.82 11.25L43.82 11.25Q43.92 11.33 43.99 11.46Q44.06 11.60 44.06 11.79L44.06 11.79Q44.06 12.03 43.91 12.27Q43.76 12.51 43.46 12.70Q43.16 12.89 42.72 13.01Q42.27 13.13 41.68 13.13ZM48.58 12.41L48.62 12.41L48.62 13.00L44.86 13.00L44.86 12.41L44.97 12.41Q45.21 12.41 45.41 12.37Q45.62 12.34 45.78 12.23Q45.93 12.13 46.02 11.93Q46.12 11.73 46.12 11.40L46.12 11.40L46.12 3.90Q46.12 3.59 46.02 3.40Q45.93 3.21 45.77 3.11Q45.62 3.01 45.41 2.98Q45.20 2.95 44.97 2.95L44.97 2.95L44.86 2.95L44.86 2.36L47.43 2.36L47.43 5.43Q47.43 5.63 47.43 5.83Q47.42 6.04 47.41 6.22L47.41 6.22Q47.39 6.43 47.38 6.62L47.38 6.62L47.45 6.62Q48.08 5.35 49.51 5.35L49.51 5.35Q50.10 5.35 50.56 5.51Q51.02 5.67 51.34 6.01Q51.65 6.34 51.82 6.86Q51.98 7.38 51.98 8.09L51.98 8.09L51.98 11.40Q51.98 11.73 52.06 11.93Q52.14 12.13 52.29 12.23Q52.43 12.34 52.63 12.37Q52.83 12.41 53.06 12.41L53.06 12.41L53.10 12.41L53.10 13.00L50.67 13.00L50.67 8.16Q50.67 7.70 50.59 7.35Q50.50 6.99 50.32 6.75Q50.14 6.50 49.85 6.37Q49.55 6.25 49.13 6.25L49.13 6.25Q48.69 6.25 48.37 6.41Q48.06 6.57 47.85 6.87Q47.64 7.16 47.54 7.58Q47.43 8.00 47.43 8.52L47.43 8.52L47.43 11.47Q47.43 11.78 47.53 11.97Q47.62 12.15 47.78 12.25Q47.93 12.35 48.14 12.38Q48.35 12.41 48.58 12.41L48.58 12.41ZM55.55 10.96L55.55 10.96Q55.55 11.62 55.83 11.95Q56.10 12.27 56.68 12.27L56.68 12.27Q57.11 12.27 57.45 12.13Q57.80 12.00 58.04 11.74Q58.28 11.49 58.41 11.13Q58.54 10.77 58.54 10.32L58.54 10.32L58.54 9.19L57.65 9.23Q57.05 9.26 56.65 9.38Q56.25 9.50 56.01 9.71Q55.76 9.93 55.65 10.24Q55.55 10.55 55.55 10.96ZM57.24 6.05L57.24 6.05Q56.84 6.05 56.59 6.16Q56.34 6.28 56.20 6.48Q56.06 6.69 56.01 6.97Q55.97 7.25 55.97 7.57L55.97 7.57Q55.38 7.57 55.08 7.38Q54.78 7.18 54.78 6.69L54.78 6.69Q54.78 6.33 54.97 6.08Q55.17 5.82 55.52 5.66Q55.86 5.50 56.32 5.43Q56.78 5.35 57.30 5.35L57.30 5.35Q57.94 5.35 58.42 5.48Q58.90 5.61 59.22 5.89Q59.54 6.18 59.70 6.64Q59.86 7.10 59.86 7.77L59.86 7.77L59.86 11.40Q59.86 11.70 59.91 11.89Q59.96 12.08 60.06 12.20Q60.16 12.31 60.33 12.36Q60.50 12.41 60.73 12.41L60.73 12.41L60.77 12.41L60.77 13.00L58.88 13.00L58.66 11.79L58.54 11.79Q58.32 12.09 58.12 12.33Q57.91 12.58 57.67 12.76Q57.42 12.93 57.11 13.03Q56.80 13.13 56.36 13.13L56.36 13.13Q55.90 13.13 55.50 13.00Q55.10 12.87 54.81 12.59Q54.52 12.31 54.35 11.89Q54.19 11.47 54.19 10.90L54.19 10.90Q54.19 9.78 54.98 9.24Q55.77 8.70 57.38 8.65L57.38 8.65L58.54 8.61L58.54 7.77Q58.54 7.40 58.50 7.08Q58.46 6.76 58.32 6.53Q58.19 6.30 57.93 6.18Q57.67 6.05 57.24 6.05ZM65.08 12.39L65.08 12.39Q65.34 12.39 65.55 12.37Q65.76 12.34 65.98 12.30L65.98 12.30L65.98 12.91Q65.89 12.95 65.75 13.00Q65.60 13.04 65.44 13.07Q65.27 13.10 65.08 13.11Q64.90 13.13 64.74 13.13L64.74 13.13Q64.20 13.13 63.82 13.02Q63.44 12.91 63.19 12.65Q62.95 12.40 62.83 11.98Q62.71 11.57 62.71 10.96L62.71 10.96L62.71 6.29L61.64 6.29L61.64 5.73Q61.89 5.73 62.20 5.63Q62.50 5.52 62.73 5.28L62.73 5.28Q62.97 5.02 63.12 4.67Q63.27 4.31 63.38 3.77L63.38 3.77L64.02 3.77L64.02 5.49L65.85 5.49L65.85 6.29L64.02 6.29L64.02 11.01Q64.02 11.72 64.31 12.06Q64.60 12.39 65.08 12.39Z"></path></g><defs data-v-fde0c5aa=""><!----></defs><g data-v-fde0c5aa="" id="85947e3f-4a16-4d2a-8870-c270e9b5d2cd" stroke="none" fill="#8E36DE" transform="matrix(1.5762792935595002,0,0,1.5762792935595002,40,124.779531303048)"><path d="M29.625 1l-3.099 3.172H4.054v23.657h22.472L29.625 31H1V1h28.625M32 0H0v32h32l-5.054-5.172H5.054V5.172h21.893L32 0z"></path><path d="M21.038 10.962v10.076H10.962V10.962h10.076m1-1H9.962v12.076h12.076V9.962z"></path></g><!----></svg>